<svg width="44" height="44" viewBox="0 0 44 44" fill="none" xmlns="http://www.w3.org/2000/svg">
<path d="M28.7498 19.2507C28.7503 19.3492 28.7311 19.4468 28.6933 19.5379C28.6555 19.6289 28.6 19.7114 28.5298 19.7807L22.5298 25.7807C22.3892 25.9211 22.1986 26 21.9998 26C21.8011 26 21.6105 25.9211 21.4698 25.7807L15.4698 19.7807C15.3374 19.6385 15.2652 19.4504 15.2687 19.2561C15.2721 19.0618 15.3508 18.8765 15.4882 18.739C15.6256 18.6016 15.811 18.5229 16.0053 18.5195C16.1996 18.5161 16.3877 18.5882 16.5298 18.7207L21.9998 24.1907L27.4698 18.7207C27.6105 18.5802 27.8011 18.5013 27.9998 18.5013C28.1986 18.5013 28.3892 18.5802 28.5298 18.7207C28.6 18.7899 28.6555 18.8725 28.6933 18.9635C28.7311 19.0545 28.7503 19.1521 28.7498 19.2507Z" fill="#373737"/>
</svg>
