<svg width="44" height="44" viewBox="0 0 44 44" fill="none" xmlns="http://www.w3.org/2000/svg">
<path d="M19.2507 15.2502C19.3492 15.2497 19.4468 15.2689 19.5379 15.3067C19.6289 15.3445 19.7114 15.4 19.7807 15.4702L25.7807 21.4702C25.9211 21.6108 26 21.8014 26 22.0002C26 22.1989 25.9211 22.3895 25.7807 22.5302L19.7807 28.5302C19.6385 28.6626 19.4504 28.7348 19.2561 28.7313C19.0618 28.7279 18.8765 28.6492 18.739 28.5118C18.6016 28.3744 18.5229 28.189 18.5195 27.9947C18.5161 27.8004 18.5882 27.6123 18.7207 27.4702L24.1907 22.0002L18.7207 16.5302C18.5802 16.3895 18.5013 16.1989 18.5013 16.0002C18.5013 15.8014 18.5802 15.6108 18.7207 15.4702C18.7899 15.4 18.8725 15.3445 18.9635 15.3067C19.0545 15.2689 19.1521 15.2497 19.2507 15.2502Z" fill="#373737"/>
</svg>
