<svg width="454" height="454" viewBox="0 0 454 454" fill="none" xmlns="http://www.w3.org/2000/svg">
<rect width="454" height="454" fill="#1A1A1A"/>
<g clip-path="url(#clip0_5262_11446)">
<path d="M60.9619 228.662C60.9619 201.274 60.9883 173.885 60.9619 146.497C60.9619 142.305 61.1992 138.167 62.9258 134.279C65.4432 128.624 71.862 125.263 78.3598 126.16C85.8989 127.201 90.3011 131.445 91.3292 138.325C93.2403 151.176 92.3572 164.132 92.7922 177.035C92.9899 182.716 92.5286 188.449 93.9916 194.025C95.0987 198.242 97.0494 202.078 100.977 204.305C107.33 207.917 114.236 205.913 118.731 199.6C122.619 194.13 124.148 187.685 126.362 181.556C134.468 159.11 148.11 140.921 167.524 127.029C189.403 111.358 213.919 104.307 240.622 105.427C263.595 106.389 284.064 114.324 301.488 129.666C318.003 144.203 326.992 162.827 331.499 183.981C332.514 188.766 332.857 193.721 335.177 198.216C339.039 205.702 347.21 208.431 353.537 203.883C357.847 200.773 359.837 196.12 360.272 190.888C361.247 179.091 360.773 167.242 361.221 155.42C361.445 149.528 361.643 143.65 362.592 137.771C364.015 128.993 372.477 125.052 379.634 126.265C388.267 127.728 391.931 132.407 392.893 142.754C393.012 144.058 393.038 145.376 393.038 146.694C393.038 201.247 393.064 255.814 393.038 310.367C393.038 315.995 392.59 321.636 388.596 326.091C384.247 330.941 378.447 331.626 372.609 330.111C367.033 328.661 363.514 324.918 362.684 318.815C360.76 304.857 361.471 290.834 361.181 276.823C361.076 271.683 361.485 266.49 360.14 261.455C357.992 253.454 353.023 247.945 345.009 245.757C331.737 242.119 319.44 244.966 308.078 252.294C297.415 259.175 286.884 266.318 274.35 269.402C247.041 276.124 222.512 271.419 202.86 250.238C191.67 238.165 185.37 223.838 189.97 206.941C196.85 181.648 221.141 170.182 243.35 177.18C250.072 179.302 254.988 183.968 256.899 191.165C258.481 197.069 254.039 201.88 248.082 200.457C245.881 199.929 243.798 198.862 241.703 197.913C233.399 194.156 224.081 197.741 220.179 205.979C215.843 215.153 218.505 222.112 224.74 228.992C242.151 248.209 271.029 245.111 288.413 227.45C302.015 213.624 304.111 197.452 298.957 179.526C289.349 146.088 255.805 132.302 227.731 135.03C200.765 137.64 179.4 150.767 163.755 172.673C155.095 184.798 151.589 198.875 151.062 213.755C150.047 242.357 160.17 266.437 179.887 286.893C194.517 302.05 211.915 312.265 232.2 317.787C238.065 319.382 244.088 320.726 248.938 324.918C255.819 330.862 255.555 341.802 248.134 346.349C244.378 348.655 240.187 349.117 235.798 348.418C207.421 343.831 183.116 331.086 162.239 311.619C148.334 298.649 138.277 282.939 130.25 265.817C128.102 261.244 125.4 257.066 121.789 253.454C116.925 248.564 111.165 246.838 104.694 248.894C98.1961 250.963 95.2569 256.249 93.9652 262.628C92.1068 271.828 92.6604 281.159 92.4495 290.464C92.2518 299.546 93.0558 308.64 91.5269 317.682C90.0507 326.341 84.7127 330.862 75.9215 330.664C67.8684 330.493 62.0954 325.049 61.2519 316.746C61.0146 314.36 60.9883 311.935 60.9751 309.523C60.9619 282.57 60.9751 255.629 60.9751 228.675L60.9619 228.662ZM86.0703 293.997C86.0703 289.502 86.3075 284.995 86.0175 280.527C85.5299 273.08 87.8891 266.121 89.1413 258.964C89.4839 257.026 91.7114 256.196 91.3424 254.047C91.0656 252.426 92.1859 251.675 93.3194 250.647C95.8895 248.314 98.9737 246.653 101.531 244.558C104.773 241.895 107.093 242.423 110.23 243.714C112.536 244.663 114.988 245.533 117.439 245.757C122.804 246.245 126.323 249.421 128.919 253.533C133.348 260.559 137.315 267.874 141.467 275.07C143.483 278.576 145.605 282.082 147.82 285.39C150.535 289.45 152.604 294.023 156.571 297.371C158.957 299.387 160.315 302.643 163.135 304.436C163.992 304.976 164.888 305.648 165.033 306.61C165.508 309.839 166.628 312.172 170.49 311.922C170.885 311.896 171.307 312.871 171.781 313.293C173.93 315.164 174.8 318.156 177.673 319.461C178.991 320.067 180.546 319.725 181.64 320.779C185.687 324.667 190.932 326.657 195.545 329.649C204.271 335.317 214.195 337.821 223.83 341.011C229.208 342.79 235.02 342.658 240.727 342.526C244.049 342.461 245.815 339.917 247.436 338.045C248.899 336.345 247.568 333.432 246.078 331.389C245.208 330.203 238.104 325.326 236.72 324.839C235.798 324.509 234.915 324.061 234.018 323.679C231.791 322.717 229.577 321.029 227.31 320.95C223.395 320.805 220.008 319.975 217.029 317.431C216.647 317.115 215.948 316.812 215.54 316.944C212.653 317.84 211.111 315.85 209.358 314.255C208.475 313.451 207.684 312.449 206.656 311.896C201.2 308.904 194.346 308.6 190.352 302.617C189.561 301.444 187.65 300.943 187.795 298.847C187.848 298.083 186.807 298.122 186.385 297.727C184.079 295.578 181.021 294.392 178.886 292.178C176.012 289.212 174.931 284.56 170.397 283.123C169.804 279.617 165.494 278.589 164.98 274.978C164.862 274.174 164.335 273.093 163.676 272.777C159.985 270.958 159.221 266.964 158.219 263.919C156.703 259.254 153.263 255.708 152.077 250.805C151.392 247.945 149.863 245.045 149.177 241.961C148.558 239.22 149.849 235.977 146.792 233.763C146.146 233.302 146.568 231.259 146.607 229.954C146.633 228.992 146.633 227.911 146.844 227.081C147.622 223.931 145.909 220.649 147.029 217.762C148.228 214.678 148.307 211.449 148.202 208.483C147.951 200.602 149.072 193.669 151.523 185.945C153.645 179.236 159.076 174.637 161.501 168.191C163.082 163.987 167.366 161.825 169.91 158.319C171.768 155.776 173.969 153.812 176.935 152.705C177.436 152.52 177.937 152.204 178.279 151.808C181.746 147.802 186.24 145.007 190.669 142.45C196.204 139.248 201.832 136.203 208.264 134.476C217.609 131.959 227.138 131.55 236.575 130.166C240.899 129.534 244.839 131.814 249.083 131.827C251.258 131.827 254.276 131.326 255.436 132.499C258.903 136.005 263.872 134.99 267.826 137.574C271.45 139.946 275.708 141.594 279.055 144.651C281.072 146.484 283.075 148.316 285.725 149.317C287.398 149.95 288.281 151.439 289.257 152.955C291.379 156.237 293.817 159.413 296.15 162.445C299.392 166.649 300.355 171.618 302.859 175.981C304.322 178.538 303.175 182.242 305.824 184.653C306.549 185.313 306.431 186.538 306.114 187.487C305.719 188.687 305.956 189.807 306.022 191.006C306.523 200.101 307.195 209.353 300.869 216.971C299.182 219.014 299.775 221.703 298.101 223.417C295.069 226.488 292.736 230.31 288.967 232.564C286.436 234.079 285.645 237.111 283.365 238.64C278.317 242.001 272.202 242.818 266.745 245.217C263.12 246.798 259.285 245.902 255.555 246.377C252.154 246.812 248.609 246.073 245.129 245.797C244.629 245.757 243.877 245.52 243.706 245.151C242.309 242.238 239.673 242.857 237.195 242.515C232.252 241.843 227.916 239.879 225.267 235.252C224.726 234.317 224.107 233.051 223.237 232.761C217.464 230.824 217.108 224.985 215.948 220.82C214.657 216.128 215.737 210.764 217.174 205.505C218.888 199.257 224.542 197.214 227.376 192.509C227.586 192.153 228.377 191.969 228.865 192.008C234.532 192.522 240.147 190.295 245.828 191.797C247.897 192.351 248.635 191.349 248.319 189.293C247.634 184.838 241.821 179.764 237.076 179.487C228.496 178.973 220.324 180.699 212.917 184.917C209.582 186.815 205.773 188.067 203.071 191.323C201.859 192.786 202.597 195.066 200.831 195.699C198.946 196.371 198.564 197.886 197.878 199.336C195.334 204.727 194.662 210.619 193.357 216.326C192.843 218.593 192.857 221.136 194.557 223.232C195.466 224.352 195.427 225.763 194.979 227.002C194.399 228.649 194.86 230.099 195.677 231.377C199.196 236.913 201.701 243.068 206.617 247.774C209.477 250.515 212.179 253.626 215.21 256.025C219.454 259.372 224.568 261.692 229.524 264.012C233.359 265.817 237.986 265.237 241.768 267.518C241.927 267.61 242.203 267.557 242.414 267.518C247.726 266.331 253.103 267.056 258.455 266.938C262.725 266.845 266.969 266.068 270.949 265C279.991 262.601 289.046 259.82 295.926 252.795C296.216 252.492 296.664 252.255 297.073 252.176C299.867 251.662 301.818 249.698 304.124 248.314C308.777 245.546 313.548 242.844 319.176 242.581C320.178 242.528 321.048 242.251 321.957 241.79C328.837 238.271 336.139 237.902 343.032 240.959C346.393 242.449 349.978 243.029 353.339 244.61C356.885 246.284 358.743 249.184 361.221 251.596C362.684 253.019 361.564 256.525 364.964 256.828C365.122 256.842 365.412 257.435 365.333 257.646C363.976 261.204 366.506 264.407 366.216 267.939C365.926 271.498 366.203 275.109 366.585 278.721C366.954 282.28 368.826 285.627 368.088 289.331C367.666 291.466 367.047 293.654 367.468 295.829C368.51 301.048 368.233 306.32 367.982 311.54C367.758 316.324 368.457 320.331 372.714 323.151C373.834 323.89 374.296 325.682 376.088 325.353C379.924 324.641 384.023 323.349 385.67 319.935C387.502 316.113 389.018 311.751 389.044 307.388C389.216 286.576 389.255 265.752 389.097 244.94C388.847 213.742 389.783 182.531 388.623 151.334C388.385 145.034 387.845 139.142 383.706 133.923C382.349 132.209 380.912 131.405 379.133 131.418C376.708 131.432 374.072 131.55 371.95 132.526C370.408 133.224 368.549 134.634 368.167 136.717C366.954 143.373 365.821 149.989 366.045 156.843C366.374 166.873 365.715 176.943 366.269 186.96C366.598 193.036 362.842 197.557 361.88 203.053C361.247 206.651 357.57 206.875 355.066 208.47C349.464 212.016 342.861 212.345 337.866 208.233C335.374 206.177 333.384 203.449 331.434 200.76C326.82 194.381 327.124 186.551 324.712 179.54C323.38 175.678 323.486 170.603 320.968 168.007C316.606 163.526 316.408 157.384 312.823 152.731C310.187 149.304 309.436 144.48 305.258 142.055C303.702 141.146 302.977 139.406 301.738 138.259C299.195 135.9 298.628 131.88 295.32 130.351C291.787 128.717 289.23 125.791 285.738 123.945C281.309 121.599 277.487 118.172 272.426 116.762C268.472 115.655 264.742 113.731 260.788 112.571C256.596 111.332 252.154 111.437 247.818 111.134C242.849 110.778 237.801 111.095 232.911 110.343C227.138 109.46 221.563 110.356 216.08 111.437C207.605 113.111 199.697 117.026 191.104 118.383C189.957 118.568 188.889 119.161 188.388 120.07C187.334 121.968 185.462 122.614 183.775 123.537C180.151 125.527 176.025 126.911 172.928 129.507C168.974 132.829 165.877 137.126 161.461 140.052C160.13 140.935 158.482 141.58 157.507 142.833C153.514 147.973 149.441 153.034 144.973 157.779C143.866 158.952 142.666 160.244 142.666 162.01C142.666 165.094 140.768 167.137 138.686 168.837C136.906 170.287 136.102 171.763 135.944 174.057C135.799 176.165 134.56 178.116 133.796 180.106C132.491 183.533 130.527 186.644 129.46 190.176C128.115 194.591 127.601 199.231 123.739 202.79C119.1 207.073 115.014 211.792 107.804 210.355C106.17 210.025 105.037 212.055 103.165 211.04C97.9852 208.233 92.4363 205.926 91.171 199.165C91.0392 198.493 90.367 197.886 89.853 197.333C89.0226 196.423 88.3768 195.435 88.1659 194.196C87.1247 188.173 86.2548 182.123 86.1625 176.007C86.0307 166.913 86.0703 157.819 86.1625 148.724C86.1889 146.286 85.8726 143.913 85.3585 141.58C84.2119 136.361 80.35 133.185 75.6974 133.461C72.0201 133.672 68.3956 137.666 67.6311 142.121C66.3658 149.489 66.6031 156.975 66.5767 164.33C66.3526 211.199 65.9968 258.067 66.9853 304.923C67.0907 309.681 67.4466 314.176 69.4368 318.604C71.7038 323.665 77.4372 324.984 81.2068 320.977C82.0239 320.107 82.9729 319.29 84.0142 318.736C85.8594 317.761 86.1889 316.271 86.1625 314.36C86.0834 307.572 86.1362 300.771 86.1362 293.984L86.0703 293.997Z" fill="#C3D6B7"/>
<path d="M86.0748 293.996C86.0748 300.784 86.022 307.585 86.1011 314.372C86.1275 316.27 85.798 317.76 83.9527 318.748C82.9115 319.302 81.9625 320.119 81.1454 320.989C77.389 324.996 71.6556 323.678 69.3754 318.616C67.3852 314.188 67.0293 309.68 66.9239 304.935C65.9354 258.066 66.2912 211.197 66.5153 164.342C66.5548 156.987 66.3044 149.488 67.5697 142.133C68.3342 137.678 71.9587 133.684 75.636 133.474C80.2886 133.21 84.1505 136.386 85.2971 141.593C85.8112 143.926 86.1275 146.298 86.1011 148.736C86.0089 157.831 85.9693 166.925 86.1011 176.019C86.1934 182.135 87.0501 188.185 88.1045 194.208C88.3154 195.434 88.9612 196.422 89.7916 197.345C90.3056 197.899 90.9778 198.505 91.1096 199.177C92.3749 205.939 97.9238 208.258 103.104 211.052C104.975 212.067 106.109 210.038 107.743 210.367C114.953 211.804 119.039 207.085 123.678 202.802C127.527 199.243 128.054 194.604 129.398 190.188C130.466 186.656 132.443 183.545 133.735 180.118C134.499 178.128 135.738 176.178 135.883 174.069C136.041 171.775 136.845 170.299 138.624 168.849C140.707 167.149 142.605 165.106 142.605 162.022C142.605 160.256 143.804 158.977 144.911 157.791C149.379 153.046 153.452 147.985 157.446 142.845C158.421 141.593 160.069 140.947 161.4 140.064C165.828 137.138 168.913 132.841 172.867 129.52C175.964 126.923 180.089 125.539 183.714 123.549C185.401 122.626 187.273 121.98 188.327 120.082C188.828 119.173 189.896 118.58 191.042 118.395C199.636 117.038 207.544 113.123 216.019 111.449C221.502 110.369 227.09 109.472 232.85 110.355C237.753 111.094 242.801 110.79 247.757 111.146C252.093 111.449 256.535 111.344 260.726 112.583C264.68 113.743 268.397 115.667 272.364 116.774C277.426 118.185 281.248 121.611 285.676 123.957C289.169 125.803 291.726 128.729 295.258 130.363C298.58 131.892 299.133 135.912 301.677 138.271C302.916 139.418 303.641 141.158 305.196 142.067C309.374 144.505 310.126 149.316 312.762 152.743C316.347 157.409 316.544 163.551 320.907 168.019C323.438 170.616 323.319 175.69 324.65 179.552C327.062 186.564 326.759 194.393 331.372 200.772C333.323 203.474 335.313 206.202 337.804 208.245C342.799 212.357 349.403 212.028 355.004 208.482C357.522 206.888 361.199 206.663 361.819 203.065C362.781 197.569 366.537 193.035 366.208 186.972C365.654 176.968 366.313 166.885 365.984 156.855C365.759 150.002 366.893 143.372 368.106 136.729C368.488 134.647 370.346 133.236 371.888 132.538C374.023 131.562 376.646 131.444 379.072 131.431C380.851 131.417 382.274 132.221 383.645 133.935C387.784 139.154 388.324 145.046 388.561 151.346C389.721 182.544 388.785 213.754 389.036 244.952C389.194 265.764 389.154 286.588 388.983 307.4C388.944 311.763 387.441 316.125 385.609 319.948C383.961 323.374 379.862 324.653 376.027 325.365C374.248 325.694 373.773 323.902 372.653 323.164C368.409 320.343 367.697 316.336 367.921 311.552C368.171 306.332 368.448 301.06 367.407 295.841C366.972 293.666 367.592 291.491 368.026 289.343C368.765 285.639 366.906 282.292 366.524 278.733C366.142 275.122 365.878 271.51 366.155 267.952C366.432 264.419 363.914 261.216 365.272 257.658C365.351 257.447 365.061 256.854 364.903 256.841C361.502 256.537 362.623 253.032 361.16 251.608C358.682 249.196 356.823 246.296 353.278 244.623C349.917 243.041 346.332 242.448 342.971 240.972C336.091 237.927 328.776 238.283 321.896 241.802C320.986 242.263 320.116 242.54 319.115 242.593C313.473 242.856 308.715 245.558 304.063 248.326C301.743 249.697 299.806 251.674 297.011 252.188C296.603 252.267 296.155 252.504 295.865 252.807C288.985 259.833 279.93 262.614 270.888 265.012C266.908 266.067 262.65 266.858 258.393 266.95C253.042 267.068 247.665 266.344 242.353 267.53C242.142 267.583 241.865 267.635 241.707 267.53C237.924 265.25 233.298 265.83 229.463 264.024C224.52 261.704 219.393 259.371 215.149 256.037C212.117 253.651 209.429 250.527 206.555 247.786C201.639 243.08 199.135 236.925 195.616 231.39C194.812 230.124 194.337 228.661 194.917 227.014C195.352 225.775 195.392 224.365 194.495 223.244C192.795 221.149 192.782 218.605 193.296 216.338C194.601 210.631 195.273 204.739 197.817 199.348C198.502 197.885 198.898 196.383 200.769 195.711C202.535 195.078 201.784 192.798 203.01 191.335C205.712 188.079 209.521 186.827 212.856 184.929C220.263 180.725 228.435 178.998 237.015 179.499C241.747 179.776 247.559 184.863 248.258 189.305C248.574 191.361 247.849 192.363 245.767 191.809C240.086 190.294 234.458 192.534 228.804 192.02C228.316 191.981 227.525 192.178 227.314 192.521C224.48 197.226 218.839 199.256 217.113 205.517C215.663 210.776 214.582 216.14 215.887 220.832C217.034 224.997 217.403 230.836 223.176 232.774C224.046 233.063 224.665 234.329 225.205 235.265C227.855 239.891 232.191 241.855 237.134 242.527C239.611 242.856 242.234 242.25 243.645 245.163C243.816 245.532 244.567 245.769 245.068 245.809C248.548 246.086 252.093 246.824 255.494 246.389C259.21 245.914 263.059 246.81 266.684 245.229C272.14 242.83 278.256 242.026 283.304 238.652C285.584 237.123 286.375 234.105 288.906 232.576C292.675 230.309 295.008 226.487 298.039 223.429C299.726 221.728 299.12 219.027 300.807 216.984C307.134 209.352 306.462 200.1 305.961 191.019C305.895 189.819 305.658 188.686 306.053 187.499C306.369 186.55 306.488 185.325 305.763 184.666C303.114 182.254 304.26 178.537 302.797 175.993C300.293 171.63 299.344 166.661 296.089 162.457C293.756 159.425 291.317 156.249 289.195 152.967C288.22 151.451 287.337 149.962 285.663 149.329C283.014 148.328 281.011 146.509 278.994 144.664C275.646 141.606 271.389 139.958 267.764 137.586C263.81 135.002 258.841 136.031 255.375 132.511C254.215 131.338 251.197 131.839 249.022 131.839C244.765 131.826 240.824 129.546 236.514 130.179C227.077 131.562 217.548 131.971 208.203 134.488C201.784 136.228 196.156 139.26 190.607 142.463C186.179 145.033 181.684 147.827 178.218 151.82C177.875 152.216 177.361 152.532 176.873 152.717C173.908 153.824 171.707 155.788 169.848 158.332C167.291 161.837 163.021 163.999 161.439 168.204C159.014 174.635 153.597 179.249 151.462 185.957C149.01 193.681 147.89 200.627 148.141 208.496C148.233 211.474 148.167 214.69 146.967 217.774C145.847 220.661 147.574 223.93 146.783 227.093C146.572 227.923 146.585 229.004 146.546 229.966C146.506 231.271 146.084 233.301 146.73 233.775C149.788 235.989 148.496 239.219 149.116 241.973C149.801 245.044 151.33 247.957 152.016 250.817C153.189 255.72 156.642 259.279 158.158 263.932C159.146 266.989 159.924 270.97 163.614 272.789C164.26 273.105 164.8 274.199 164.919 274.99C165.433 278.614 169.743 279.629 170.336 283.135C174.883 284.572 175.964 289.224 178.824 292.19C180.959 294.404 184.017 295.591 186.324 297.739C186.745 298.134 187.787 298.082 187.734 298.859C187.589 300.955 189.513 301.456 190.291 302.629C194.271 308.613 201.138 308.916 206.595 311.908C207.623 312.474 208.414 313.463 209.297 314.267C211.05 315.862 212.592 317.865 215.478 316.956C215.887 316.824 216.599 317.127 216.968 317.443C219.946 319.987 223.334 320.831 227.248 320.962C229.515 321.042 231.716 322.729 233.957 323.691C234.853 324.086 235.736 324.521 236.659 324.851C238.043 325.338 245.147 330.215 246.017 331.401C247.506 333.444 248.851 336.357 247.375 338.057C245.767 339.929 243.987 342.459 240.666 342.539C234.959 342.657 229.146 342.802 223.769 341.023C214.134 337.833 204.209 335.329 195.484 329.661C190.884 326.67 185.625 324.679 181.579 320.791C180.485 319.737 178.916 320.079 177.612 319.473C174.738 318.155 173.868 315.163 171.72 313.305C171.232 312.883 170.824 311.908 170.428 311.934C166.567 312.184 165.446 309.852 164.972 306.622C164.827 305.66 163.93 304.988 163.074 304.448C160.253 302.655 158.896 299.4 156.51 297.383C152.543 294.035 150.473 289.462 147.758 285.402C145.544 282.094 143.422 278.588 141.405 275.082C137.254 267.886 133.286 260.571 128.858 253.546C126.275 249.433 122.742 246.257 117.378 245.769C114.926 245.545 112.475 244.675 110.168 243.726C107.031 242.435 104.712 241.907 101.469 244.57C98.9123 246.679 95.8413 248.339 93.258 250.659C92.1245 251.674 91.0042 252.438 91.281 254.06C91.65 256.208 89.4225 257.052 89.0799 258.976C87.8277 266.133 85.4685 273.092 85.9561 280.539C86.2461 285.007 86.0089 289.514 86.0089 294.009L86.0748 293.996Z" fill="#D6DEDE"/>
</g>
<defs>
<clipPath id="clip0_5262_11446">
<rect width="332.076" height="243.386" fill="white" transform="translate(60.9619 105.307)"/>
</clipPath>
</defs>
</svg>
