<svg width="108" height="108" viewBox="0 0 108 108" fill="none" xmlns="http://www.w3.org/2000/svg">
<rect width="108" height="108" fill="#1A1A1A"/>
<g clip-path="url(#clip0_2633_19371)">
<path d="M57.3086 16.2182C57.8289 16.0669 58.3868 16.0115 58.8945 15.9938C63.8331 15.8426 68.6787 18.1541 72.1168 21.6253C73.9616 23.4856 75.3187 25.1645 76.4045 28.3759C77.4374 31.4311 77.8295 35.7719 77.259 37.9171C77.2288 38.0306 77.3444 38.1238 77.4475 38.0709C79.0434 37.2769 81.0867 37.5567 82.0166 39.0288C83.796 41.8496 82.1272 45.54 80.7072 48.1314C79.0685 51.116 76.8594 53.7452 74.5547 56.2307C72.1721 58.8019 69.6689 61.2597 67.0576 63.5939C64.7404 65.6635 62.4407 67.9549 59.5253 69.1598C58.608 69.5379 56.6929 70.0849 56.0545 68.9481C55.8132 68.5195 55.9112 67.975 56.0997 67.5188C59.6359 58.9582 63.6496 49.0363 63.6496 39.6111C63.818 30.7001 61.4982 24.4259 56.4239 19.4473C56.4214 19.4448 56.4189 19.4423 56.4164 19.4372C55.7579 18.6533 55.2427 17.6449 56.1148 16.8433C56.4466 16.5383 56.8638 16.3392 57.3061 16.2081L57.3086 16.2182Z" fill="#FF0086"/>
<path d="M30.0069 19.9036C29.3937 19.3314 28.3934 18.5903 27.0488 18.371C23.3568 17.7634 20.3534 21.6051 19.9111 22.1723C16.2744 26.8232 15.724 36.1451 20.7907 38.9204C24.2163 40.7959 29.6224 39.3641 33.5406 35.1317L48.2885 55.7669C48.1653 55.7064 45.4032 54.3779 43.3172 55.8526C41.4197 57.1962 41.568 59.8178 41.6107 60.574C41.8872 65.4896 47.5169 70.385 51.1335 69.2254C52.8501 68.6759 53.7473 67.2819 54.0941 66.7147C59.3393 58.1163 68.264 32.5 55.5242 20.9245C53.1341 18.7541 50.4373 17.5643 50.1885 17.4559C43.556 14.5646 37.1496 16.5434 35.3401 17.1711C32.9474 18.0004 31.1429 19.1045 30.0044 19.9036H30.0069Z" fill="#FF0086"/>
<path d="M72.2142 88.1609C68.2332 91.9622 62.2516 91.9774 55.6995 91.9774C49.1473 91.9774 43.0904 91.9622 39.0465 88.108C35.4651 84.6923 34.6583 79.0281 37.1339 74.7175C39.4888 70.6187 44.0228 69.5297 48.3481 70.7271C50.3236 71.2741 52.2789 72.0278 54.3272 72.0833C57.891 72.1766 61.1734 70.4296 64.7221 70.3767C69.1957 70.3087 73.3075 73.0185 74.9537 77.203C76.4415 80.9766 75.1773 85.3376 72.2142 88.1634V88.1609Z" fill="#FF0086"/>
</g>
<defs>
<clipPath id="clip0_2633_19371">
<rect width="65.707" height="76.2539" fill="white" transform="translate(17.0859 15.9258)"/>
</clipPath>
</defs>
</svg>
