<svg width="142" height="44" viewBox="0 0 142 44" fill="none" xmlns="http://www.w3.org/2000/svg">
<g clip-path="url(#clip0_5262_11457)">
<path d="M45.7772 20.7859C46.5284 20.7859 47.1348 21.3898 47.144 22.139C47.2629 31.9248 40.6638 37.7392 32.3199 37.7392C23.9761 37.7392 16.54 30.6589 16.54 22.0002C16.54 13.3415 23.5982 6.26123 32.3199 6.26123C37.4453 6.26123 41.8675 8.63481 44.6408 12.5013C45.0961 13.1365 44.9284 14.0227 44.2694 14.4447L41.1504 16.4413C40.5403 16.832 39.7274 16.6804 39.3053 16.092C37.6896 13.8407 35.2029 12.4121 32.3199 12.4121C27.2084 12.4121 23.071 16.5792 23.071 22.0012C23.071 27.4231 27.2084 31.752 32.4416 31.752C35.4665 31.752 37.9043 30.6065 39.3495 28.2743C39.908 27.3725 39.2417 26.2087 38.179 26.2087H34.2941C33.5393 26.2087 32.9282 25.5983 32.9282 24.8463V22.1501C32.9282 21.3972 33.5402 20.7877 34.2941 20.7877H45.7772V20.7859ZM75.8319 36.4743L73.9867 32.0002C73.7867 31.5148 73.3121 31.1976 72.7849 31.1976H62.3341C61.8078 31.1976 61.3331 31.5148 61.1322 32.0002L59.287 36.4743C59.087 36.9597 58.6124 37.2768 58.0852 37.2768H54.593C53.6612 37.2768 53.0326 36.3281 53.3976 35.4732L64.676 9.04941C64.8797 8.57138 65.3507 8.26067 65.8714 8.26067H69.4005C69.9212 8.26067 70.3922 8.57138 70.5959 9.04941L81.8744 35.4732C82.2393 36.3281 81.6108 37.2768 80.679 37.2768H77.0328C76.5066 37.2768 76.0319 36.9597 75.831 36.4743H75.8319ZM66.3581 19.3417L64.3221 24.2911C63.9709 25.1442 64.5995 26.0791 65.524 26.0791H69.5968C70.5212 26.0791 71.1498 25.1442 70.7987 24.2911L68.7627 19.3417C68.3221 18.2698 66.7995 18.2698 66.359 19.3417H66.3581ZM104.414 36.398L99.822 22.9039C99.3953 21.65 97.5796 21.7667 97.3179 23.0648L94.6607 36.2371C94.539 36.842 94.0054 37.2778 93.387 37.2778H89.9888C89.1657 37.2778 88.5501 36.524 88.7169 35.7196L94.198 9.29578C94.3225 8.69365 94.8543 8.2625 95.4699 8.2625H99.5345C100.093 8.2625 100.589 8.61827 100.767 9.14685L105.604 23.5621C105.999 24.7415 107.672 24.7415 108.068 23.5621L112.905 9.14685C113.082 8.61827 113.579 8.2625 114.137 8.2625H118.125C118.74 8.2625 119.272 8.69365 119.396 9.29578L124.878 35.7196C125.044 36.524 124.429 37.2778 123.606 37.2778H120.092C119.474 37.2778 118.94 36.8429 118.819 36.2371L116.161 23.0648C115.9 21.7667 114.084 21.65 113.657 22.9039L109.065 36.398C108.887 36.9238 108.392 37.2778 107.835 37.2778H105.646C105.089 37.2778 104.594 36.9238 104.416 36.398H104.414Z" fill="#D6DEDE"/>
<path d="M7.33236 6.39596C7.3425 5.45461 7.21992 4.53901 7.02084 3.63811C6.5766 1.62857 5.45032 0.402245 3.64846 0.503366C2.22448 0.585182 0.820779 2.12682 0.524924 3.84679C0.035518 6.68645 0.132293 9.58219 0.116625 12.4209C0.093583 17.1782 0.0677763 15.7772 0.0484213 20.5354C0.082523 26.3774 -0.0755411 30.5021 0.0479625 36.3442C0.0885159 38.1763 -0.0505044 40.7861 0.891203 42.0358C2.19861 43.7708 4.31292 43.9755 5.78212 42.6037C6.09825 42.2681 6.19552 42.043 6.5001 41.7386C7.13601 41.1031 7.33236 40.0819 7.32223 39.3492C7.29181 36.7284 7.32223 34.8027 7.32223 32.1818L7.29642 32.1873C7.31577 30.4967 7.31024 30.4177 7.27614 28.6416C7.33236 27.6852 7.33236 25.8154 7.33236 24.8805C7.34158 22.9758 7.32407 20.9516 7.33236 19.0468C7.3425 15.6188 7.26416 17.6195 7.33236 15.734C7.45955 12.2251 7.29457 9.90669 7.33236 6.39596Z" fill="#D9E1E2"/>
<path d="M134.668 6.39547C134.657 5.45413 134.78 4.53852 134.979 3.63763C135.423 1.62808 136.55 0.401757 138.352 0.502878C139.776 0.584694 141.179 2.12633 141.475 3.8463C141.964 6.68596 141.868 9.5817 141.883 12.4204C141.906 17.1777 141.932 15.7767 141.952 20.5349C141.917 26.377 142.076 30.5017 141.952 36.3437C141.911 38.1758 142.051 40.7856 141.109 42.0353C139.801 43.7703 138.056 43.975 136.587 42.6032C136.27 42.2677 135.804 42.0425 135.5 41.7381C134.864 41.1026 134.668 40.0814 134.678 39.3487C134.708 36.7279 134.678 34.8022 134.678 32.1813L134.704 32.1868C134.684 30.4963 134.69 30.4172 134.724 28.6411C134.668 27.6847 134.668 25.8149 134.668 24.8801C134.658 22.9753 134.676 20.9511 134.668 19.0463C134.657 15.6183 134.736 17.619 134.668 15.7335C134.54 12.2246 134.705 9.9062 134.668 6.39547Z" fill="#D9E1E2"/>
</g>
<defs>
<clipPath id="clip0_5262_11457">
<rect width="142" height="43.0057" fill="white" transform="translate(0 0.49707)"/>
</clipPath>
</defs>
</svg>
