<svg width="32" height="32" viewBox="0 0 33 32" fill="none" xmlns="http://www.w3.org/2000/svg">
<g id="icon-plus-circle-mono">
<path id="Vector" fill-rule="evenodd" clip-rule="evenodd" d="M22.4895 17.3335H17.8228V22.0002C17.8228 22.3538 17.6824 22.6929 17.4323 22.943C17.1823 23.193 16.8431 23.3335 16.4895 23.3335C16.1359 23.3335 15.7967 23.193 15.5467 22.943C15.2966 22.6929 15.1562 22.3538 15.1562 22.0002V17.3335H10.4895C10.1359 17.3335 9.79674 17.193 9.54669 16.943C9.29664 16.6929 9.15616 16.3538 9.15616 16.0002C9.15616 15.6465 9.29664 15.3074 9.54669 15.0574C9.79674 14.8073 10.1359 14.6668 10.4895 14.6668H15.1562V10.0002C15.1562 9.64654 15.2966 9.3074 15.5467 9.05735C15.7967 8.80731 16.1359 8.66683 16.4895 8.66683C16.8431 8.66683 17.1823 8.80731 17.4323 9.05735C17.6824 9.3074 17.8228 9.64654 17.8228 10.0002V14.6668H22.4895C22.8431 14.6668 23.1823 14.8073 23.4323 15.0574C23.6824 15.3074 23.8228 15.6465 23.8228 16.0002C23.8228 16.3538 23.6824 16.6929 23.4323 16.943C23.1823 17.193 22.8431 17.3335 22.4895 17.3335ZM16.5002 1.3335C8.40016 1.3335 1.8335 7.90016 1.8335 16.0002C1.8335 24.1002 8.40016 30.6668 16.5002 30.6668C24.6002 30.6668 31.1668 24.1002 31.1668 16.0002C31.1668 7.90016 24.6002 1.3335 16.5002 1.3335Z" fill="#B3B3B3"/>
</g>
</svg>
