<svg width="667" height="649" viewBox="0 0 667 649" fill="none" xmlns="http://www.w3.org/2000/svg">
<path d="M475.751 480.206C476.335 481.13 476.87 482.007 477.503 482.932C483.394 491.646 486.899 501.284 488.116 511.702C489.479 523.191 481.69 531.905 470.104 532.002C459.735 532.099 450.193 528.935 441.333 523.775C424.49 513.99 412.271 499.873 403.46 482.591C402.438 480.595 401.221 478.745 400.052 476.847C399.955 476.7 399.712 476.701 399.712 476.701C400.296 480.741 400.783 488.287 397.521 496.514C396.45 499.191 393.48 505.86 384.182 513.552C367.339 527.475 347.575 530.055 336.622 531.32C326.642 532.489 313.304 534.047 296.849 529.471C274.846 523.337 255.958 508.733 253.718 497.779C251.82 488.579 253.232 478.55 253.232 478.55C253.378 477.966 253.426 477.382 253.426 477.139C248.169 483.759 243.009 490.769 237.362 497.293C225.24 511.313 210.831 522.217 193.403 528.74C186.442 531.32 179.237 533.024 171.74 531.466C162.686 529.617 157.574 522.071 159.522 512.919C161.469 503.767 165.85 495.686 171.01 487.994C172.422 485.901 173.834 483.857 174.905 481.471C171.886 484.733 168.966 488.141 165.801 491.305C154.069 503.037 142.289 514.72 130.411 526.355C127.538 529.178 126.127 528.935 123.644 525.479C137.469 511.459 151.343 497.39 165.217 483.321L165.071 483.078C144.674 490.136 123.839 487.07 114.492 475.143C100.91 457.764 115.125 426.072 130.167 413.464C134.938 409.472 147.059 401.391 154.215 396.62C158.451 393.797 163.075 391.509 167.359 388.442C166.434 388.637 165.217 388.88 163.757 389.124C151.002 391.12 128.901 390.292 123.741 378.998C121.356 373.74 123.157 367.947 125.202 363.42C129.583 353.684 137.031 346.82 145.94 341.514C150.954 338.544 156.357 336.207 162.345 333.189C160.641 332.849 159.57 332.41 158.548 332.508C150.71 333.189 146.28 333.433 137.469 334.552C131.53 335.283 125.25 335.38 125.202 334.942C125.104 334.26 137.956 331.972 146.865 330.561C171.108 326.763 191.018 325.741 191.115 326.325C191.115 326.569 188 327.007 182.499 328.516C178.994 329.49 176.17 330.707 174.223 331.729C174.272 332.118 174.32 332.508 174.369 332.849C257.126 309.287 294.805 316.102 313.79 327.932C317.49 330.268 344.654 347.891 361.741 340.102C363.104 339.469 367.144 337.717 370.357 333.579C378.195 323.453 373.375 309.238 372.645 307.194C379.996 324.183 388.077 336.548 395.963 335.964C418.746 334.212 454.039 159.301 410.081 137.784C401.318 133.5 391.387 136.275 386.324 138.076C385.546 137.492 384.767 136.859 384.036 136.275C407.306 109.501 419.768 96.795 421.472 98.1094C422.835 99.1317 417.577 108.77 405.699 127.026C405.943 127.123 406.137 127.269 406.381 127.367C408.328 124.884 410.227 122.401 412.222 119.967C422.932 107.067 435.443 96.9897 449.853 90.3204C455.889 87.5456 463.386 84.0406 473.998 82.7262C478.233 82.1907 502.622 79.0752 511.044 91.3914C514.16 95.9674 514.695 101.517 514.695 101.517C515.182 106.434 513.819 110.28 513.04 112.178C536.796 88.0324 559.822 76.5438 572.187 83.7972C576.325 86.2312 578.126 90.1257 578.661 91.2941C589.858 116.267 535.433 163.293 530.516 167.431C533.778 166.798 536.991 167.918 538.305 170.157C540.204 173.273 538.597 178.628 533.681 180.769C538.549 177.849 543.368 174.879 548.236 171.958C552.277 169.67 553.445 169.524 553.688 169.865C554.078 170.352 552.715 172.104 552.228 172.737C548.187 177.849 518.93 197.613 501.405 209.248C516.788 207.398 522.241 211.195 524.48 214.262C534.313 227.6 508.318 261.628 499.653 272.971C484.805 292.395 468.789 306.123 455.84 315.469C465.917 317.611 477.747 321.847 488.554 330.512C531.636 365.027 520.683 439.362 502.282 461.999C498.923 466.088 488.505 478.989 481.106 476.457C479.742 475.97 478.818 475.094 478.185 474.412C477.941 474.607 477.698 474.851 477.503 475.045C478.915 476.749 480.327 478.453 481.69 480.206C483.929 483.029 486.12 485.95 488.31 488.773C488.456 488.919 488.505 489.114 488.651 489.26C493.324 495.053 498.046 500.798 502.622 506.688C509.389 515.402 515.863 523.483 515.474 523.824C514.987 524.262 503.547 511.702 497.365 504.887C488.116 494.712 480.667 486.193 475.556 480.303L475.751 480.206ZM355.461 389.562C354.293 394.527 350.642 398.422 346.309 401.635C343.632 403.582 340.711 405.286 337.644 406.551C320.995 413.464 303.665 415.703 285.75 414.243C276.306 413.464 267.252 411.322 259.025 406.308C257.029 405.091 256.104 405.772 255.812 408.401C254.935 416.093 257.564 420.815 264.282 424.709C274.846 430.892 286.627 431.963 298.261 431.817C311.989 431.622 325.522 429.334 338.082 422.811C348.5 417.407 356.678 410.835 355.266 397.497C355.218 396.961 355.85 396.377 356.142 395.842C356.629 396.231 357.359 396.523 357.554 397.01C358.576 399.639 359.501 402.316 360.378 404.994C363.006 413.026 366.463 420.669 371.526 427.435C372.45 428.652 374.641 430.21 375.469 429.87C376.88 429.237 378.536 427.289 378.682 425.78C379.266 419.16 379.606 412.49 379.558 405.821C379.509 401.002 378.584 396.134 378.195 391.314C377.951 388.442 379.12 387.761 381.602 389.026C382.138 389.318 382.625 389.659 383.16 389.951C389.975 393.31 396.791 396.718 404.482 397.399C411.2 398.032 414.072 394.381 413.05 387.712C412.076 381.237 408.571 376.028 405.164 370.771C402.778 367.071 399.712 363.761 396.888 360.305C396.012 359.185 394.795 358.163 394.016 360.402C393.091 363.225 391.095 362.885 389.148 362.106C387.59 361.473 386.178 360.353 384.718 359.477C384.767 360.499 385.156 361.132 385.643 361.716C390.219 367.461 393.042 374.033 394.892 381.043C396.353 386.397 393.237 389.318 388.077 387.468C384.767 386.3 381.651 384.645 378.584 382.892C375.907 381.383 373.424 379.485 370.649 377.635C371.331 384.499 372.11 390.876 372.499 397.302C372.743 401.391 372.596 405.626 372.061 409.667C371.623 412.929 369.189 413.415 366.852 411.03C366.365 410.543 365.879 409.959 365.586 409.326C362.179 402.754 358.771 396.134 355.412 389.61L355.461 389.562ZM231.325 423.103C231.666 423.249 231.958 423.444 232.299 423.59C233.224 423.006 234.246 422.567 235.025 421.837C241.159 415.995 247.244 410.154 253.329 404.215C254.011 403.533 254.838 402.511 254.789 401.683C254.546 398.811 253.913 395.988 253.378 393.018C245.199 400.564 238.579 409.277 232.835 418.722C232.056 419.987 231.812 421.594 231.374 423.054L231.325 423.103Z" fill="#E1FF29"/>
<path d="M389.686 141.487C381.41 131.848 373.914 129.657 371.528 129.025C358.092 125.52 346.798 132.578 344.559 134.039C364.08 117.439 383.552 100.79 403.073 84.1895C402.878 83.9948 402.635 83.8488 402.44 83.6541C401.418 84.2382 400.347 84.725 399.422 85.4553C393.288 90.1773 387.155 94.948 381.021 99.7187C373.135 105.853 365.248 111.986 357.411 118.12C354.149 120.652 350.888 123.28 347.626 125.812C346.02 127.029 344.316 128.1 342.369 129.414C344.316 127.369 346.944 123.962 346.896 119.727C346.652 99.8161 286.483 77.4716 231.912 83.1673C225.73 83.8001 172.327 89.8365 168.628 112.035C167.508 118.753 171.208 125.374 175.881 130.923C154.9 114.81 164.871 120.883 143.5 105.5C143.257 105.792 143.013 106.133 142.77 106.425C161.512 122.1 149.593 115.394 168.141 130.923C163.127 128.148 157.967 125.081 152.612 122.453C144.531 118.461 136.109 115.491 126.811 115.832C117.902 116.173 111.087 122.891 111.331 131.702C111.428 134.769 111.866 137.982 112.937 140.854C116.637 150.736 122.722 159.012 130.851 165.73C139.371 172.789 148.961 178.095 159.378 181.892C160.401 182.282 161.325 183.012 162.299 183.547C162.202 183.742 162.056 183.985 161.958 184.18C131.29 180.967 115.907 179.653 115.809 180.286C115.712 180.918 132.653 183.645 166.534 188.415C211.272 160.862 260.829 161.446 286.142 185.738C297.29 196.448 306.637 214.46 308.097 233.64C308.682 240.991 309.996 260.512 297.436 274.532C295.538 276.625 293.737 278.183 292.471 279.156C295.002 279.303 298.702 279.887 302.256 282.077C310.483 287.091 309.947 295.659 314.961 304.227C323.432 318.637 344.51 327.983 355.999 321.704C361.889 318.491 363.788 311.919 364.226 310.556C368.121 297.363 356.291 283.83 351.618 278.475C349.135 275.603 346.798 273.509 345.046 272.049C345.046 272.049 345.143 272.049 345.192 272C364.129 286.459 383.017 300.917 401.954 315.375C402.197 315.132 402.392 314.84 402.635 314.596C382.725 297.753 362.863 280.958 342.953 264.114C345.727 266.061 356.096 272.974 368.948 270.637C377.613 269.08 383.212 264.114 386.181 261.339C401.175 247.417 403.365 226.727 404.777 211.685C406.091 197.275 409.207 164.221 389.637 141.438L389.686 141.487Z" fill="#E1FF29"/>
</svg>
